<?xml version="1.0" encoding="utf-8"?>
<!-- Generator: Adobe Illustrator 25.2.3, SVG Export Plug-In . SVG Version: 6.00 Build 0)  -->
<svg version="1.1" id="Layer_1" xmlns="http://www.w3.org/2000/svg" xmlns:xlink="http://www.w3.org/1999/xlink" x="0px" y="0px"
	 viewBox="0 0 163.999 132.9173" style="enable-background:new 0 0 163.999 132.9173;" xml:space="preserve">
<style type="text/css">
	.st0{fill:#FFFFFF;}
</style>
<g>
	<g>
		<path class="st0" d="M0,130.2373v-9.3984h2.7256c1.5029,0,2.7373,0.4521,3.7031,1.3438c0.9658,0.8926,1.4551,2.0166,1.4551,3.3613
			c0,1.2832-0.4648,2.3955-1.3936,3.3125c-0.917,0.917-2.0166,1.3809-3.2998,1.3809H0z M3.1416,129.3574
			c1.0625,0,1.9678-0.3906,2.7129-1.1729c0.7451-0.7822,1.1123-1.7119,1.0752-2.7744c-0.0244-1.0391-0.4395-1.9189-1.2344-2.6279
			c-0.7939-0.709-1.7354-1.0635-2.8232-1.0635H0.9043v7.6387H3.1416z"/>
		<path class="st0" d="M9.6426,122.4394h-0.917v-1.625h0.917V122.4394z M9.6426,130.2373h-0.917v-6.9668h0.917V130.2373z"/>
		<path class="st0" d="M17.708,127.9521c-0.2568,0.7451-0.6963,1.3447-1.3203,1.7842c-0.623,0.4404-1.3076,0.6602-2.0654,0.6719
			c-0.9531,0.0127-1.7969-0.3301-2.5303-1.0381c-0.7334-0.7217-1.1113-1.5644-1.124-2.5547
			c-0.0244-1.0391,0.3418-1.9434,1.0996-2.6895c0.7705-0.7578,1.6631-1.1123,2.7012-1.0508
			c0.9297,0.0615,1.7363,0.4404,2.4199,1.1494c0.6602,0.6963,0.9902,1.4785,0.9902,2.3467v0.501h-6.2578
			c0.0732,0.6963,0.3672,1.2832,0.8926,1.7353s1.1367,0.6846,1.8457,0.6719c1.0996-0.0117,1.8818-0.5254,2.3584-1.5273H17.708z
			 M16.9629,126.2168c-0.1348-0.6484-0.4404-1.1738-0.917-1.5771s-1.0508-0.6113-1.7236-0.623
			c-0.6719-0.0127-1.2588,0.1953-1.7598,0.5986s-0.8066,0.9414-0.9414,1.6016H16.9629z"/>
		<path class="st0" d="M25.8711,129.9072c0,0.8799-0.3662,1.6133-1.0879,2.1885c-0.7207,0.5742-1.54,0.8555-2.4688,0.8184
			c-0.8311-0.0361-1.5518-0.2812-2.1514-0.7578c-0.5742-0.4521-0.9531-1.0391-1.1484-1.748h0.9043
			c0.1348,0.4775,0.4521,0.8926,0.9287,1.2344c0.4766,0.3545,1.0029,0.5264,1.5771,0.5264
			c0.6846-0.0127,1.2705-0.2451,1.7725-0.7217c0.501-0.4639,0.7568-1.0264,0.7568-1.6738v-0.6602
			c-0.6836,0.7822-1.5391,1.1973-2.5664,1.2344c-1.002,0.0361-1.8701-0.3184-2.5908-1.0391
			c-0.7217-0.7334-1.0879-1.6133-1.0879-2.6279c0-0.9775,0.3301-1.8213,1.002-2.5303c0.6729-0.708,1.5039-1.0752,2.4688-1.1113
			c1.0029-0.0254,1.8701,0.3291,2.6035,1.0625c0.7461,0.7217,1.1006,1.5889,1.0879,2.5918V129.9072z M24.1475,128.6484
			c0.502-0.5254,0.7705-1.1484,0.7822-1.8818c0.0244-0.7705-0.2314-1.4307-0.7822-2.0049
			c-0.5371-0.5742-1.1855-0.8428-1.9551-0.8066c-0.7207,0.0371-1.3203,0.3301-1.8213,0.8799s-0.7451,1.1855-0.7334,1.9189
			c0.0127,0.7461,0.2812,1.3691,0.8066,1.8945s1.1494,0.7822,1.8828,0.7822C23.0479,129.4306,23.6465,129.1738,24.1475,128.6484z"/>
		<path class="st0" d="M32.9111,129.3574c-0.7217,0.7207-1.5889,1.0752-2.5918,1.0391c-0.9648-0.0244-1.7959-0.3916-2.4688-1.0996
			c-0.6719-0.709-1.002-1.5527-1.002-2.5303c0-1.0146,0.3662-1.8945,1.0879-2.6162c0.7207-0.7334,1.5889-1.0869,2.5908-1.0508
			c0.9658,0.0371,1.7969,0.4033,2.4688,1.125c0.6729,0.708,1.0146,1.5518,1.0146,2.5293
			C34.0107,127.7568,33.6445,128.624,32.9111,129.3574z M30.332,129.4794c0.7695,0.0371,1.418-0.2197,1.9551-0.7939
			c0.5508-0.5752,0.8066-1.2344,0.7949-2.0049c-0.0244-0.7334-0.293-1.3564-0.7949-1.8818
			c-0.501-0.5254-1.0996-0.7822-1.8086-0.7822c-0.7451-0.0127-1.3691,0.2568-1.8945,0.7822s-0.7822,1.1484-0.7939,1.8945
			c-0.0127,0.7334,0.2197,1.3809,0.7207,1.9307S29.6113,129.455,30.332,129.4794z"/>
		<path class="st0" d="M42.002,130.2373h-0.9414v-7.0889c0-1.4785,1.0146-2.3096,2.4326-2.3096h2.7012v0.8799h-2.7012
			c-0.4893,0-0.8311,0.0977-1.0273,0.293c-0.3057,0.3301-0.4639,0.6484-0.4639,0.9775v2.0293h3.1406v0.8926H42.002V130.2373z"/>
		<path class="st0" d="M53.5996,127.9521c-0.2568,0.7451-0.6963,1.3447-1.3203,1.7842c-0.623,0.4404-1.3076,0.6602-2.0654,0.6719
			c-0.9531,0.0127-1.7969-0.3301-2.5303-1.0381c-0.7324-0.7217-1.1113-1.5644-1.124-2.5547
			c-0.0244-1.0391,0.3418-1.9434,1.0996-2.6895c0.7705-0.7578,1.6631-1.1123,2.7012-1.0508
			c0.9297,0.0615,1.7363,0.4404,2.4199,1.1494c0.6602,0.6963,0.9902,1.4785,0.9902,2.3467v0.501h-6.2578
			c0.0732,0.6963,0.3672,1.2832,0.8926,1.7353s1.1367,0.6846,1.8457,0.6719c1.0996-0.0117,1.8818-0.5254,2.3584-1.5273H53.5996z
			 M52.8545,126.2168c-0.1348-0.6484-0.4404-1.1738-0.917-1.5771s-1.0508-0.6113-1.7236-0.623
			c-0.6719-0.0127-1.2588,0.1953-1.7598,0.5986s-0.8066,0.9414-0.9414,1.6016H52.8545z"/>
		<path class="st0" d="M55.5049,130.2373h-0.9775v-6.9668h0.8682v0.9902c0.1953-0.3789,0.4883-0.6602,0.8672-0.8682
			c0.3545-0.1826,0.709-0.2686,1.0752-0.2559v0.9287c-0.4277,0.0117-0.7812,0.1338-1.0508,0.3545
			c-0.2686,0.2197-0.4521,0.415-0.5498,0.5742c-0.1592,0.2686-0.2324,0.623-0.2324,1.0752V130.2373z"/>
		<path class="st0" d="M64.207,130.2373h-0.9404v-4.0693c0-0.5869-0.2207-1.0879-0.6484-1.5156s-0.916-0.6357-1.4912-0.6357
			c-0.5742,0-1.0869,0.208-1.5156,0.6357c-0.4277,0.4277-0.6348,0.9287-0.6348,1.5156v4.0693h-0.9414v-3.9717
			c0-0.9053,0.293-1.6504,0.8799-2.249c0.5869-0.5996,1.3203-0.9043,2.2119-0.9043c0.8809,0,1.6133,0.3047,2.2002,0.9043
			c0.5869,0.5986,0.8799,1.3438,0.8799,2.249V130.2373z"/>
		<path class="st0" d="M72.334,130.2373h-0.9053v-1.0879c-0.7568,0.8682-1.6865,1.2832-2.7861,1.2471
			c-0.9658-0.0371-1.7842-0.4033-2.457-1.1123c-0.6719-0.709-1.0146-1.5518-1.0146-2.5303c0-1.0146,0.3672-1.8945,1.0879-2.6152
			c0.7217-0.7334,1.5889-1.0752,2.6035-1.0391c0.9775,0.0371,1.8096,0.4033,2.4932,1.125c0.6846,0.708,1.0146,1.5518,0.9785,2.5176
			v0.0488V130.2373z M66.1123,126.6806c-0.0117,0.7334,0.2197,1.3809,0.7217,1.9316c0.501,0.5498,1.1123,0.8311,1.8203,0.8672
			c0.7705,0.0371,1.418-0.2324,1.9561-0.7939c0.5498-0.5752,0.8066-1.2471,0.7939-2.0166
			c-0.0117-0.7334-0.2803-1.3574-0.7822-1.8828c-0.501-0.5254-1.1113-0.7822-1.8203-0.7822c-0.7461,0-1.3691,0.2568-1.8945,0.7822
			S66.125,125.9355,66.1123,126.6806z"/>
		<path class="st0" d="M79.458,130.2373h-0.9404v-4.0693c0-0.5869-0.2207-1.0879-0.6484-1.5156s-0.916-0.6357-1.4912-0.6357
			c-0.5742,0-1.0869,0.208-1.5156,0.6357c-0.4277,0.4277-0.6348,0.9287-0.6348,1.5156v4.0693h-0.9414v-3.9717
			c0-0.9053,0.293-1.6504,0.8799-2.249c0.5869-0.5996,1.3203-0.9043,2.2119-0.9043c0.8809,0,1.6133,0.3047,2.2002,0.9043
			c0.5869,0.5986,0.8799,1.3438,0.8799,2.249V130.2373z"/>
		<path class="st0" d="M87.7314,126.791c0.0244,1.002-0.3301,1.8701-1.0762,2.6035c-0.7451,0.7207-1.6133,1.0752-2.6152,1.0381
			c-0.9658-0.0244-1.7969-0.3906-2.4688-1.0996s-1.002-1.5518-1.002-2.5303c0-1.0137,0.3662-1.8945,1.0879-2.6152
			c0.7207-0.7334,1.5889-1.0879,2.5908-1.0508c1.0264,0.0361,1.8818,0.4521,2.5664,1.2344v-3.5078h0.917V126.791z M84.0527,129.5166
			c0.7695,0.0361,1.417-0.2197,1.9551-0.7949c0.5498-0.5742,0.8066-1.2344,0.7822-2.0039
			c-0.0117-0.7334-0.2812-1.3574-0.7822-1.8828s-1.0996-0.7822-1.8213-0.7822c-0.7334-0.0117-1.3682,0.2568-1.8945,0.7822
			c-0.5254,0.5254-0.7822,1.1494-0.7939,1.8945c-0.0127,0.7334,0.2324,1.3809,0.7334,1.9316
			C82.7324,129.2109,83.3311,129.4921,84.0527,129.5166z"/>
		<path class="st0" d="M94.7832,129.3574c-0.7217,0.7207-1.5889,1.0752-2.5918,1.0391c-0.9648-0.0244-1.7959-0.3916-2.4688-1.0996
			c-0.6719-0.709-1.002-1.5527-1.002-2.5303c0-1.0146,0.3662-1.8945,1.0879-2.6162c0.7207-0.7334,1.5889-1.0869,2.5908-1.0508
			c0.9658,0.0371,1.7969,0.4033,2.4688,1.125c0.6729,0.708,1.0146,1.5518,1.0146,2.5293
			C95.8828,127.7568,95.5166,128.624,94.7832,129.3574z M92.2041,129.4794c0.7695,0.0371,1.418-0.2197,1.9551-0.7939
			c0.5508-0.5752,0.8066-1.2344,0.7949-2.0049c-0.0244-0.7334-0.293-1.3564-0.7949-1.8818
			c-0.501-0.5254-1.0996-0.7822-1.8086-0.7822c-0.7451-0.0127-1.3691,0.2568-1.8945,0.7822s-0.7822,1.1484-0.7939,1.8945
			c-0.0127,0.7334,0.2197,1.3809,0.7207,1.9307S91.4834,129.455,92.2041,129.4794z"/>
		<path class="st0" d="M107.7236,130.2373h-0.9287l-3.8623-9.4228h1.002l3.3252,8.2617l3.3359-8.2617h0.9902L107.7236,130.2373z"/>
		<path class="st0" d="M119.2725,127.9521c-0.2568,0.7451-0.6963,1.3447-1.3203,1.7842c-0.623,0.4404-1.3076,0.6602-2.0654,0.6719
			c-0.9531,0.0127-1.7969-0.3301-2.5303-1.0381c-0.7334-0.7217-1.1113-1.5644-1.124-2.5547
			c-0.0244-1.0391,0.3418-1.9434,1.0996-2.6895c0.7705-0.7578,1.6631-1.1123,2.7012-1.0508
			c0.9297,0.0615,1.7363,0.4404,2.4199,1.1494c0.6602,0.6963,0.9902,1.4785,0.9902,2.3467v0.501h-6.2578
			c0.0732,0.6963,0.3672,1.2832,0.8926,1.7353s1.1367,0.6846,1.8457,0.6719c1.0996-0.0117,1.8818-0.5254,2.3584-1.5273H119.2725z
			 M118.5273,126.2168c-0.1348-0.6484-0.4404-1.1738-0.917-1.5771s-1.0508-0.6113-1.7236-0.623
			c-0.6719-0.0127-1.2588,0.1953-1.7598,0.5986s-0.8066,0.9414-0.9414,1.6016H118.5273z"/>
		<path class="st0" d="M121.2021,130.2373h-0.9287v-9.4228h0.9287V130.2373z"/>
		<path class="st0" d="M129.4033,130.2373h-0.9053v-1.0879c-0.7568,0.8682-1.6865,1.2832-2.7861,1.2471
			c-0.9658-0.0371-1.7842-0.4033-2.457-1.1123c-0.6719-0.709-1.0146-1.5518-1.0146-2.5303c0-1.0146,0.3672-1.8945,1.0879-2.6152
			c0.7217-0.7334,1.5889-1.0752,2.6035-1.0391c0.9775,0.0371,1.8096,0.4033,2.4932,1.125c0.6846,0.708,1.0146,1.5518,0.9785,2.5176
			v0.0488V130.2373z M123.1816,126.6806c-0.0117,0.7334,0.2197,1.3809,0.7217,1.9316c0.501,0.5498,1.1123,0.8311,1.8203,0.8672
			c0.7705,0.0371,1.418-0.2324,1.9561-0.7939c0.5498-0.5752,0.8066-1.2471,0.7939-2.0166
			c-0.0117-0.7334-0.2803-1.3574-0.7822-1.8828c-0.501-0.5254-1.1113-0.7822-1.8203-0.7822c-0.7461,0-1.3691,0.2568-1.8945,0.7822
			S123.1943,125.9355,123.1816,126.6806z"/>
		<path class="st0" d="M131.3457,128.4043c0,0.2324,0.1338,0.4766,0.3906,0.7334s0.5381,0.3789,0.8311,0.3662
			c0.3916-0.0117,0.6973-0.1221,0.9287-0.3545c0.208-0.207,0.3057-0.4883,0.3184-0.8311c0.0117-0.5986-0.3301-1.0019-1.0146-1.2217
			l-0.8184-0.2568c-0.8564-0.2686-1.3086-0.8555-1.3447-1.748c-0.0244-0.5381,0.1592-1.002,0.5381-1.3809
			c0.3906-0.3789,0.8555-0.5869,1.4053-0.6113c0.4766-0.0244,0.916,0.1348,1.3203,0.4648c0.415,0.3301,0.6348,0.7334,0.6719,1.2217
			l0.0117,0.208h-0.9775v-0.1592c0-0.4883-0.4893-0.8184-1.0264-0.8184c-0.5254,0.0117-0.9658,0.415-0.9775,0.9531
			c-0.0371,0.501,0.2686,0.8555,0.8916,1.0635l0.8066,0.2686c0.9287,0.3184,1.4307,0.9414,1.4912,1.8584
			c0.0488,0.623-0.1709,1.1729-0.6602,1.6377c-0.4883,0.4521-1.0508,0.6592-1.6865,0.623c-0.5869-0.0371-1.0752-0.2812-1.4785-0.709
			c-0.3916-0.4277-0.5869-0.9414-0.5869-1.54h0.9658V128.4043z"/>
		<path class="st0" d="M142.8574,132.6816h-0.917v-3.5078c-0.6963,0.7822-1.5518,1.1982-2.5664,1.2344
			c-1.0146,0.0371-1.8818-0.3174-2.6035-1.0381c-0.7207-0.7334-1.0879-1.6133-1.0879-2.6279c0-0.9785,0.3301-1.8213,1.0029-2.5303
			c0.6719-0.709,1.5029-1.0752,2.4688-1.0996c1.0146-0.0371,1.8818,0.3174,2.6279,1.0508c0.7451,0.7334,1.0996,1.6006,1.0752,2.5908
			v0.0488V132.6816z M136.624,126.8154c0.0127,0.7451,0.2695,1.3691,0.7949,1.8945s1.1484,0.7822,1.8945,0.7822
			c0.709,0,1.3193-0.2568,1.8203-0.7822c0.502-0.5254,0.7705-1.1494,0.7822-1.8828c0.0127-0.7695-0.2441-1.4297-0.7939-2.0039
			c-0.5381-0.5742-1.1855-0.8311-1.9561-0.7949c-0.708,0.0244-1.3193,0.3184-1.8203,0.8682
			C136.8438,125.4463,136.6123,126.082,136.624,126.8154z"/>
		<path class="st0" d="M149.9824,127.2431c0,0.9043-0.293,1.6621-0.8799,2.2607c-0.5742,0.5996-1.3076,0.9043-2.2002,0.9043
			s-1.626-0.3047-2.2119-0.9043c-0.5752-0.5986-0.8682-1.3564-0.8682-2.2607v-3.9727h0.9414v4.083
			c0,0.5859,0.207,1.0869,0.6357,1.5146c0.4277,0.416,0.9287,0.624,1.5029,0.624s1.0635-0.208,1.4912-0.624
			c0.4277-0.4277,0.6475-0.9287,0.6475-1.5146v-4.083h0.9414V127.2431z"/>
		<path class="st0" d="M158.0605,127.9521c-0.2568,0.7451-0.6963,1.3447-1.3203,1.7842c-0.623,0.4404-1.3076,0.6602-2.0654,0.6719
			c-0.9531,0.0127-1.7969-0.3301-2.5303-1.0381c-0.7324-0.7217-1.1113-1.5644-1.124-2.5547
			c-0.0244-1.0391,0.3418-1.9434,1.0996-2.6895c0.7705-0.7578,1.6631-1.1123,2.7012-1.0508
			c0.9297,0.0615,1.7363,0.4404,2.4199,1.1494c0.6602,0.6963,0.9902,1.4785,0.9902,2.3467v0.501h-6.2578
			c0.0732,0.6963,0.3672,1.2832,0.8926,1.7353s1.1367,0.6846,1.8457,0.6719c1.0996-0.0117,1.8818-0.5254,2.3584-1.5273H158.0605z
			 M157.3154,126.2168c-0.1348-0.6484-0.4404-1.1738-0.917-1.5771s-1.0508-0.6113-1.7236-0.623
			c-0.6719-0.0127-1.2588,0.1953-1.7598,0.5986s-0.8066,0.9414-0.9414,1.6016H157.3154z"/>
		<path class="st0" d="M163.999,130.2373h-5.1455v-0.8672l3.7285-5.2314h-3.5938v-0.8682h4.7295v0.8799l-3.6904,5.2197h3.9717
			V130.2373z"/>
	</g>
	<g>
		<path class="st0" d="M65.1616,83.2818h27.3331c0,0,19.3785,1.8351,28.7613-11.0153c9.3837-12.8512,21.4186-39.7766-1.0196-65.6823
			c0,0,21.0101,8.364,28.1493,33.045c7.1392,24.6818-0.612,50.7919-16.9298,63.4379
			c-16.3195,12.6469-38.7569,11.4238-38.7569,11.4238l-71.8011,0.0325l23.0494-69.3866l34.5532-0.2043L65.1616,83.2818z"/>
		<path class="st0" d="M114.75,45.631c0,0-1.0313-13.0954-25.4464-13.0954H46.0228c0,0-24.2575,1.514-32.3272-32.5356h73.6645
			c0,0,17.987,0.5328,26.3335,13.4515C118.0657,20.218,122.0726,31.6452,114.75,45.631"/>
	</g>
</g>
</svg>
