<?xml version="1.0" encoding="utf-8"?>
<!-- Generator: Adobe Illustrator 25.2.3, SVG Export Plug-In . SVG Version: 6.00 Build 0)  -->
<svg version="1.1" id="Layer_1" xmlns="http://www.w3.org/2000/svg" xmlns:xlink="http://www.w3.org/1999/xlink" x="0px" y="0px"
	 viewBox="0 0 181.2265 44.9315" style="enable-background:new 0 0 181.2265 44.9315;" xml:space="preserve">
<style type="text/css">
	.st0{fill:#FFFFFF;}
</style>
<g>
	<g>
		<path class="st0" d="M67.7977,15.0515V4.092h3.1777c1.7529,0,3.1924,0.5273,4.3184,1.5679s1.6963,2.3516,1.6963,3.9189
			c0,1.4966-0.542,2.7935-1.625,3.8623c-1.0684,1.0688-2.3516,1.6104-3.8477,1.6104H67.7977z M71.4608,14.0256
			c1.2393,0,2.2939-0.4561,3.1631-1.3682c0.8701-0.9121,1.2969-1.9951,1.2549-3.2354c-0.0293-1.2114-0.5137-2.2373-1.4395-3.064
			c-0.9268-0.8267-2.0244-1.2397-3.292-1.2397h-2.2949v8.9072H71.4608z"/>
		<path class="st0" d="M79.0448,5.9592h-1.0693V4.0637h1.0693V5.9592z M79.0448,15.0515h-1.0693v-8.123h1.0693V15.0515z"/>
		<path class="st0" d="M88.4501,12.3865c-0.2988,0.8696-0.8125,1.5679-1.5391,2.0811s-1.5254,0.7695-2.4082,0.7837
			c-1.1123,0.0142-2.0957-0.3848-2.9502-1.2114c-0.8555-0.8408-1.2969-1.8242-1.3115-2.9785
			c-0.0283-1.2114,0.3994-2.2661,1.2822-3.1353c0.8984-0.8838,1.9385-1.2969,3.1504-1.2256
			c1.083,0.0713,2.0234,0.5127,2.8213,1.3394c0.7695,0.8125,1.1543,1.7246,1.1543,2.7363v0.5845h-7.2969
			c0.0859,0.8125,0.4277,1.4966,1.041,2.0234c0.6123,0.5273,1.3252,0.7983,2.1514,0.7842c1.2832-0.0142,2.1953-0.6128,2.751-1.7817
			H88.4501z M87.5809,10.363c-0.1572-0.7554-0.5137-1.3682-1.0693-1.8384c-0.5557-0.4707-1.2256-0.7129-2.0088-0.7271
			c-0.7842-0.0142-1.4688,0.228-2.0527,0.6982s-0.9404,1.0977-1.0977,1.8672H87.5809z"/>
		<path class="st0" d="M97.9716,14.6667c0,1.0264-0.4277,1.8813-1.2686,2.5513s-1.7959,0.9976-2.8789,0.9551
			c-0.9688-0.043-1.8096-0.3281-2.5078-0.8838c-0.6699-0.5273-1.1123-1.2114-1.3398-2.0381h1.0547
			c0.1562,0.5557,0.5273,1.0405,1.083,1.4395c0.5557,0.4131,1.1689,0.6128,1.8379,0.6128c0.7988-0.0142,1.4824-0.2852,2.0674-0.8408
			c0.584-0.5415,0.8828-1.1973,0.8828-1.9526v-0.7695c-0.7979,0.9121-1.7949,1.397-2.9922,1.4395
			c-1.1689,0.043-2.1807-0.3706-3.0215-1.2114c-0.8408-0.855-1.2686-1.8813-1.2686-3.064c0-1.1401,0.3848-2.1235,1.1689-2.9502
			c0.7832-0.8267,1.7529-1.2539,2.8789-1.2969c1.168-0.0283,2.1797,0.3848,3.0352,1.2397c0.8691,0.8408,1.2832,1.853,1.2686,3.0215
			V14.6667z M95.9618,13.199c0.585-0.6128,0.8984-1.3398,0.9121-2.1948c0.0283-0.8979-0.2705-1.6675-0.9121-2.3374
			c-0.627-0.6694-1.3818-0.9829-2.2803-0.9404c-0.8408,0.043-1.5391,0.3848-2.123,1.0264c-0.585,0.6411-0.8691,1.3823-0.8555,2.2373
			c0.0146,0.8691,0.3281,1.5962,0.9404,2.209c0.6133,0.6128,1.3398,0.9121,2.1953,0.9121
			C94.6796,14.1111,95.3778,13.8118,95.9618,13.199z"/>
		<path class="st0" d="M106.1825,14.0256c-0.8418,0.8408-1.8535,1.2539-3.0215,1.2114c-1.126-0.0288-2.0957-0.4561-2.8789-1.2827
			c-0.7842-0.8267-1.1689-1.8101-1.1689-2.9502c0-1.1826,0.4277-2.209,1.2686-3.0498c0.8408-0.855,1.8525-1.2686,3.0215-1.2256
			c1.126,0.043,2.0947,0.4702,2.8789,1.311c0.7832,0.8267,1.1826,1.8101,1.1826,2.9502
			C107.4647,12.1584,107.037,13.1706,106.1825,14.0256z M103.1747,14.1682c0.8984,0.0425,1.6533-0.2568,2.2803-0.9263
			c0.6416-0.6699,0.9404-1.4395,0.9268-2.3374c-0.0283-0.855-0.3418-1.582-0.9268-2.1948c-0.584-0.6128-1.2822-0.9121-2.1094-0.9121
			c-0.8691-0.0142-1.5957,0.2993-2.209,0.9121c-0.6123,0.6128-0.9121,1.3398-0.9258,2.209c-0.0146,0.855,0.2559,1.6104,0.8408,2.252
			C101.6356,13.8118,102.3339,14.1394,103.1747,14.1682z"/>
		<path class="st0" d="M116.7889,15.0515h-1.0977V6.7859c0-1.7246,1.1826-2.6938,2.8359-2.6938h3.1494v1.0264h-3.1494
			c-0.5703,0-0.9688,0.1138-1.1973,0.3418c-0.3564,0.3848-0.541,0.7554-0.541,1.1401v2.3657h3.6621v1.0405h-3.6621V15.0515z"/>
		<path class="st0" d="M130.3143,12.3865c-0.2988,0.8696-0.8125,1.5679-1.5391,2.0811s-1.5254,0.7695-2.4082,0.7837
			c-1.1123,0.0142-2.0957-0.3848-2.9502-1.2114c-0.8555-0.8408-1.2969-1.8242-1.3115-2.9785
			c-0.0283-1.2114,0.3994-2.2661,1.2822-3.1353c0.8984-0.8838,1.9385-1.2969,3.1504-1.2256
			c1.083,0.0713,2.0234,0.5127,2.8213,1.3394c0.7695,0.8125,1.1543,1.7246,1.1543,2.7363v0.5845h-7.2969
			c0.0859,0.8125,0.4277,1.4966,1.041,2.0234c0.6123,0.5273,1.3252,0.7983,2.1514,0.7842c1.2832-0.0142,2.1953-0.6128,2.751-1.7817
			H130.3143z M129.4452,10.363c-0.1572-0.7554-0.5137-1.3682-1.0693-1.8384c-0.5557-0.4707-1.2256-0.7129-2.0088-0.7271
			c-0.7842-0.0142-1.4688,0.228-2.0527,0.6982s-0.9404,1.0977-1.0977,1.8672H129.4452z"/>
		<path class="st0" d="M132.539,15.0515h-1.1406v-8.123h1.0127v1.1543c0.2275-0.4419,0.5693-0.7695,1.0117-1.0122
			c0.4131-0.2134,0.8262-0.3135,1.2539-0.2988v1.083c-0.499,0.0142-0.9121,0.1567-1.2256,0.4131
			c-0.3135,0.2568-0.5273,0.4849-0.6416,0.6699c-0.1855,0.3135-0.2705,0.7271-0.2705,1.2539V15.0515z"/>
		<path class="st0" d="M142.6874,15.0515h-1.0977v-4.7456c0-0.6841-0.2568-1.2686-0.7559-1.7671
			c-0.498-0.499-1.0684-0.7412-1.7383-0.7412s-1.2686,0.2422-1.7676,0.7412c-0.498,0.4985-0.7402,1.083-0.7402,1.7671v4.7456
			h-1.0977v-4.6313c0-1.0547,0.3418-1.9243,1.0264-2.6226c0.6836-0.6982,1.5391-1.0547,2.5791-1.0547
			c1.0264,0,1.8809,0.3564,2.5654,1.0547c0.6836,0.6982,1.0264,1.5679,1.0264,2.6226V15.0515z"/>
		<path class="st0" d="M152.1649,15.0515h-1.0547v-1.2681c-0.8828,1.0117-1.9668,1.4961-3.249,1.4536
			c-1.126-0.043-2.0811-0.4702-2.8643-1.2969c-0.7842-0.8267-1.1836-1.8101-1.1836-2.9502c0-1.1831,0.4277-2.209,1.2686-3.0498
			c0.8408-0.855,1.8525-1.2544,3.0361-1.2114c1.1396,0.043,2.1094,0.4702,2.9072,1.311c0.7979,0.8267,1.1826,1.8101,1.1396,2.936
			v0.0571V15.0515z M144.911,10.9045c-0.0137,0.855,0.2568,1.6104,0.8408,2.252c0.585,0.6411,1.2969,0.9688,2.124,1.0117
			c0.8975,0.0425,1.6523-0.271,2.2803-0.9263c0.6406-0.6699,0.9404-1.4536,0.9258-2.3516c-0.0137-0.8555-0.3271-1.582-0.9121-2.1948
			c-0.584-0.6128-1.2969-0.9121-2.123-0.9121c-0.8691,0-1.5967,0.2993-2.209,0.9121
			C145.2245,9.3083,144.9257,10.0349,144.911,10.9045z"/>
		<path class="st0" d="M160.4765,15.0515h-1.0977v-4.7456c0-0.6841-0.2568-1.2686-0.7559-1.7671
			c-0.498-0.499-1.0684-0.7412-1.7383-0.7412s-1.2686,0.2422-1.7676,0.7412c-0.498,0.4985-0.7402,1.083-0.7402,1.7671v4.7456
			h-1.0977v-4.6313c0-1.0547,0.3418-1.9243,1.0264-2.6226c0.6836-0.6982,1.5391-1.0547,2.5791-1.0547
			c1.0264,0,1.8809,0.3564,2.5654,1.0547c0.6836,0.6982,1.0264,1.5679,1.0264,2.6226V15.0515z"/>
		<path class="st0" d="M170.1249,11.033c0.0293,1.1685-0.3848,2.1802-1.2539,3.0356c-0.8691,0.8408-1.8809,1.2539-3.0498,1.2109
			c-1.126-0.0283-2.0947-0.4561-2.8789-1.2822c-0.7832-0.8267-1.168-1.8101-1.168-2.9502c0-1.1831,0.4268-2.209,1.2676-3.0498
			c0.8408-0.8555,1.8535-1.2686,3.0215-1.2256c1.1973,0.0425,2.1953,0.5269,2.9932,1.439V4.1208h1.0684V11.033z M165.8358,14.2107
			c0.8975,0.043,1.6533-0.2563,2.2803-0.9263c0.6406-0.6699,0.9404-1.4395,0.9121-2.3374c-0.0146-0.855-0.3281-1.5815-0.9121-2.1943
			c-0.585-0.6128-1.2832-0.9121-2.124-0.9121c-0.8545-0.0146-1.5957,0.2993-2.209,0.9121c-0.6123,0.6128-0.9121,1.3394-0.9258,2.209
			c-0.0146,0.855,0.2705,1.6104,0.8545,2.2515C164.2968,13.8547,164.995,14.1824,165.8358,14.2107z"/>
		<path class="st0" d="M178.3505,14.0256c-0.8418,0.8408-1.8535,1.2539-3.0215,1.2114c-1.126-0.0288-2.0957-0.4561-2.8789-1.2827
			c-0.7842-0.8267-1.1689-1.8101-1.1689-2.9502c0-1.1826,0.4277-2.209,1.2686-3.0498c0.8408-0.855,1.8525-1.2686,3.0215-1.2256
			c1.126,0.043,2.0947,0.4702,2.8789,1.311c0.7832,0.8267,1.1826,1.8101,1.1826,2.9502
			C179.6327,12.1584,179.205,13.1706,178.3505,14.0256z M175.3427,14.1682c0.8984,0.0425,1.6533-0.2568,2.2803-0.9263
			c0.6416-0.6699,0.9404-1.4395,0.9268-2.3374c-0.0283-0.855-0.3418-1.582-0.9268-2.1948c-0.584-0.6128-1.2822-0.9121-2.1094-0.9121
			c-0.8691-0.0142-1.5957,0.2993-2.209,0.9121c-0.6123,0.6128-0.9121,1.3398-0.9258,2.209c-0.0146,0.855,0.2559,1.6104,0.8408,2.252
			C173.8036,13.8118,174.5018,14.1394,175.3427,14.1682z"/>
	</g>
	<g>
		<path class="st0" d="M20.1919,32.6743h10.7237c0,0,7.6028,0.72,11.284-4.3217c3.6815-5.042,8.4033-15.6057-0.4-25.7694
			c0,0,8.243,3.2815,11.0439,12.9647c2.801,9.6835-0.2401,19.9274-6.6421,24.8889c-6.4027,4.9618-15.2057,4.482-15.2057,4.482
			l-28.17,0.0128l9.0431-27.2228l13.5564-0.0801L20.1919,32.6743z"/>
		<path class="st0" d="M39.6471,17.9026c0,0-0.4046-5.1378-9.9835-5.1378H12.6831c0,0-9.517,0.594-12.6831-12.7648h28.9011
			c0,0,7.0569,0.209,10.3315,5.2775C40.948,7.9322,42.52,12.4155,39.6471,17.9026"/>
	</g>
	<g>
		<rect x="58.8724" y="2.3313" class="st0" width="1" height="40.2793"/>
	</g>
	<g>
		<path class="st0" d="M76.5907,38.9309h-1.7051l-7.0879-17.2944h1.8389L75.7382,36.8l6.123-15.1636h1.8174L76.5907,38.9309z"/>
		<path class="st0" d="M97.7831,34.7366c-0.4707,1.3682-1.2783,2.4668-2.4229,3.2744c-1.1436,0.8076-2.3994,1.2109-3.79,1.2334
			c-1.75,0.0225-3.2979-0.6055-4.6436-1.9062c-1.3457-1.3232-2.041-2.8711-2.0635-4.6875
			c-0.0449-1.9072,0.6279-3.5664,2.0186-4.9355c1.4131-1.3906,3.0508-2.041,4.957-1.9287c1.7051,0.1123,3.1855,0.8076,4.4414,2.1084
			c1.2109,1.2783,1.8174,2.7139,1.8174,4.3066v0.9199H86.6132c0.1338,1.2783,0.6729,2.3555,1.6367,3.1846
			c0.9648,0.8301,2.0859,1.2568,3.3877,1.2344c2.0186-0.0225,3.4541-0.9648,4.3291-2.8037H97.7831z M96.4149,31.551
			c-0.2471-1.1885-0.8076-2.1533-1.6826-2.8936s-1.9287-1.1211-3.1621-1.1436c-1.2344-0.0225-2.3105,0.3584-3.2305,1.0986
			s-1.4805,1.7275-1.7266,2.9385H96.4149z"/>
		<path class="st0" d="M101.3251,38.9309H99.62V21.6365h1.7051V38.9309z"/>
		<path class="st0" d="M116.3749,38.9309h-1.6602v-1.9961c-1.3906,1.5918-3.0957,2.3545-5.1143,2.2871
			c-1.7715-0.0664-3.2744-0.7402-4.5088-2.041c-1.2334-1.3008-1.8613-2.8486-1.8613-4.6426c0-1.8623,0.6729-3.4766,1.9961-4.8008
			c1.3232-1.3457,2.916-1.9736,4.7783-1.9062c1.7939,0.0674,3.3193,0.7402,4.5752,2.0635c1.2559,1.3008,1.8623,2.8486,1.7949,4.6211
			v0.0898V38.9309z M104.9579,32.4036c-0.0225,1.3457,0.4033,2.5342,1.3232,3.5439c0.9189,1.0098,2.041,1.5254,3.3418,1.5928
			c1.4131,0.0674,2.6025-0.4268,3.5889-1.458c1.0098-1.0547,1.4805-2.2881,1.458-3.7012c-0.0225-1.3457-0.5156-2.4902-1.4355-3.4541
			c-0.9199-0.9648-2.041-1.4355-3.3418-1.4355c-1.3682,0-2.5127,0.4707-3.4766,1.4355
			C105.4511,29.8909,104.9804,31.0354,104.9579,32.4036z"/>
		<path class="st0" d="M119.9384,35.5666c0,0.4258,0.2461,0.874,0.7178,1.3457c0.4707,0.4707,0.9863,0.6953,1.5244,0.6729
			c0.7178-0.0225,1.2793-0.2246,1.7051-0.6504c0.3809-0.3818,0.5605-0.8975,0.583-1.5254c0.0225-1.0996-0.6055-1.8398-1.8613-2.2432
			l-1.5029-0.4707c-1.5703-0.4941-2.4004-1.5703-2.4678-3.208c-0.0449-0.9873,0.292-1.8389,0.9873-2.5342
			c0.7178-0.6963,1.5703-1.0771,2.5791-1.1221c0.875-0.0449,1.6826,0.2471,2.4229,0.8525c0.7627,0.6055,1.166,1.3457,1.2334,2.2432
			l0.0225,0.3809h-1.7939v-0.291c0-0.8975-0.8975-1.5029-1.8848-1.5029c-0.9639,0.0225-1.7715,0.7627-1.7939,1.749
			c-0.0674,0.9199,0.4932,1.5703,1.6377,1.9521l1.4805,0.4932c1.7041,0.583,2.624,1.7266,2.7363,3.4092
			c0.0898,1.1445-0.3145,2.1533-1.2119,3.0059c-0.8965,0.8301-1.9287,1.2109-3.0947,1.1436
			c-1.0771-0.0674-1.9746-0.5156-2.7139-1.3008c-0.7188-0.7852-1.0771-1.7266-1.0771-2.8262h1.7725V35.5666z"/>
		<path class="st0" d="M141.0653,43.4172h-1.6826v-6.4375c-1.2783,1.4355-2.8486,2.1973-4.71,2.2646
			c-1.8623,0.0674-3.4551-0.583-4.7783-1.9062c-1.3232-1.3457-1.9961-2.9609-1.9961-4.8223c0-1.7949,0.6055-3.3428,1.8389-4.6436
			c1.2344-1.3008,2.7598-1.9736,4.5312-2.0186c1.8623-0.0674,3.4541,0.583,4.8223,1.9287c1.3691,1.3457,2.0195,2.9385,1.9746,4.7559
			v0.0898V43.4172z M129.6259,32.6506c0.0225,1.3682,0.4932,2.5117,1.458,3.4766c0.9639,0.9639,2.1084,1.4355,3.4766,1.4355
			c1.3008,0,2.4219-0.4717,3.3418-1.4355c0.9199-0.9648,1.4131-2.1084,1.4355-3.4541c0.0225-1.4131-0.4482-2.625-1.458-3.6787
			c-0.9863-1.0547-2.1758-1.5254-3.5889-1.458c-1.3008,0.0449-2.4229,0.583-3.3418,1.5918
			C130.0292,30.1379,129.6034,31.3039,129.6259,32.6506z"/>
		<path class="st0" d="M154.1386,33.4348c0,1.6602-0.5381,3.0508-1.6143,4.1504c-1.0547,1.0986-2.4004,1.6592-4.0381,1.6592
			s-2.9834-0.5605-4.0596-1.6592c-1.0547-1.0996-1.5928-2.4902-1.5928-4.1504v-7.2891h1.7275v7.4912
			c0,1.0771,0.3809,1.9961,1.166,2.7812c0.7852,0.7627,1.7051,1.1445,2.7588,1.1445c1.0547,0,1.9512-0.3818,2.7363-1.1445
			c0.7852-0.7852,1.1895-1.7041,1.1895-2.7812v-7.4912h1.7266V33.4348z"/>
		<path class="st0" d="M168.9628,34.7366c-0.4707,1.3682-1.2783,2.4668-2.4229,3.2744c-1.1436,0.8076-2.3994,1.2109-3.79,1.2334
			c-1.75,0.0225-3.2979-0.6055-4.6436-1.9062c-1.3457-1.3232-2.041-2.8711-2.0635-4.6875
			c-0.0449-1.9072,0.6279-3.5664,2.0186-4.9355c1.4131-1.3906,3.0508-2.041,4.957-1.9287c1.7051,0.1123,3.1855,0.8076,4.4414,2.1084
			c1.2109,1.2783,1.8174,2.7139,1.8174,4.3066v0.9199h-11.4844c0.1338,1.2783,0.6729,2.3555,1.6367,3.1846
			c0.9648,0.8301,2.0859,1.2568,3.3877,1.2344c2.0186-0.0225,3.4541-0.9648,4.3291-2.8037H168.9628z M167.5946,31.551
			c-0.2471-1.1885-0.8076-2.1533-1.6826-2.8936s-1.9287-1.1211-3.1621-1.1436c-1.2344-0.0225-2.3105,0.3584-3.2305,1.0986
			s-1.4805,1.7275-1.7266,2.9385H167.5946z"/>
		<path class="st0" d="M179.8602,38.9309h-9.4424v-1.5928l6.8408-9.6006h-6.5947v-1.5918h8.6807V27.76l-6.7734,9.5781h7.2891
			V38.9309z"/>
	</g>
</g>
</svg>
